<svg width="105" height="38" viewBox="0 0 105 38" fill="none" xmlns="http://www.w3.org/2000/svg">
<path d="M8.44512 3.736V30.76H21.4051L20.5891 37H0.57312V3.736H8.44512Z" fill="#242424"/>
<path d="M34.8597 10.696C38.7637 10.696 41.8197 11.896 44.0277 14.296C46.2357 16.664 47.3397 19.992 47.3397 24.28C47.3397 27 46.8277 29.384 45.8037 31.432C44.8117 33.448 43.3717 35.016 41.4837 36.136C39.6277 37.256 37.4197 37.816 34.8597 37.816C30.9877 37.816 27.9317 36.632 25.6917 34.264C23.4837 31.864 22.3797 28.52 22.3797 24.232C22.3797 21.512 22.8757 19.144 23.8677 17.128C24.8917 15.08 26.3317 13.496 28.1877 12.376C30.0757 11.256 32.2997 10.696 34.8597 10.696ZM34.8597 16.264C33.3237 16.264 32.1717 16.92 31.4037 18.232C30.6357 19.512 30.2517 21.512 30.2517 24.232C30.2517 27.016 30.6197 29.048 31.3557 30.328C32.1237 31.608 33.2917 32.248 34.8597 32.248C36.3957 32.248 37.5477 31.608 38.3157 30.328C39.0837 29.016 39.4677 27 39.4677 24.28C39.4677 21.496 39.0837 19.464 38.3157 18.184C37.5797 16.904 36.4277 16.264 34.8597 16.264Z" fill="#242424"/>
<path d="M66.299 10.696C69.339 10.696 71.675 11.896 73.307 14.296C74.939 16.664 75.755 19.992 75.755 24.28C75.755 26.904 75.339 29.24 74.507 31.288C73.707 33.336 72.539 34.936 71.003 36.088C69.499 37.24 67.707 37.816 65.627 37.816C64.251 37.816 62.987 37.528 61.835 36.952C60.715 36.376 59.755 35.576 58.955 34.552L58.571 37H51.851V1.38399L59.435 0.567993V14.104C60.203 13.048 61.179 12.216 62.363 11.608C63.579 11 64.891 10.696 66.299 10.696ZM63.419 32.296C66.395 32.296 67.883 29.624 67.883 24.28C67.883 21.24 67.531 19.144 66.827 17.992C66.123 16.84 65.099 16.264 63.755 16.264C62.059 16.264 60.619 17.256 59.435 19.24V29.848C59.915 30.616 60.491 31.224 61.163 31.672C61.867 32.088 62.619 32.296 63.419 32.296Z" fill="#242424"/>
<path d="M91.5316 10.696C95.4356 10.696 98.4916 11.896 100.7 14.296C102.908 16.664 104.012 19.992 104.012 24.28C104.012 27 103.5 29.384 102.476 31.432C101.484 33.448 100.044 35.016 98.1556 36.136C96.2996 37.256 94.0916 37.816 91.5316 37.816C87.6596 37.816 84.6036 36.632 82.3636 34.264C80.1556 31.864 79.0516 28.52 79.0516 24.232C79.0516 21.512 79.5476 19.144 80.5396 17.128C81.5636 15.08 83.0036 13.496 84.8596 12.376C86.7476 11.256 88.9716 10.696 91.5316 10.696ZM91.5316 16.264C89.9956 16.264 88.8436 16.92 88.0756 18.232C87.3076 19.512 86.9236 21.512 86.9236 24.232C86.9236 27.016 87.2916 29.048 88.0276 30.328C88.7956 31.608 89.9636 32.248 91.5316 32.248C93.0676 32.248 94.2196 31.608 94.9876 30.328C95.7556 29.016 96.1396 27 96.1396 24.28C96.1396 21.496 95.7556 19.464 94.9876 18.184C94.2516 16.904 93.0996 16.264 91.5316 16.264Z" fill="#242424"/>
</svg>
